<?xml version="1.0" encoding="utf-8"?><svg xmlns="http://www.w3.org/2000/svg" width="192.356" height="71.675" viewBox="0 0 192.356 71.675"><path d="M180.506 47.061a6.755 6.755 0 0 0 5.026-2.124 7.1 7.1 0 0 0 2.09-5.152 7.128 7.128 0 0 0-2.09-5.18 6.754 6.754 0 0 0-5.026-2.124 6.741 6.741 0 0 0-5.025 2.124 7.143 7.143 0 0 0-2.09 5.18 7.114 7.114 0 0 0 2.09 5.152 6.743 6.743 0 0 0 5.025 2.124m-45.407 0a6.754 6.754 0 0 0 5.026-2.124 7.1 7.1 0 0 0 2.09-5.152 7.131 7.131 0 0 0-2.09-5.18 6.756 6.756 0 0 0-5.026-2.124 6.742 6.742 0 0 0-5.025 2.124 7.149 7.149 0 0 0-2.09 5.18 7.115 7.115 0 0 0 2.09 5.152 6.744 6.744 0 0 0 5.026 2.124zm-35.028 0a6.752 6.752 0 0 0 5.026-2.124 7.1 7.1 0 0 0 2.089-5.152 7.13 7.13 0 0 0-2.089-5.18 6.754 6.754 0 0 0-5.026-2.124 6.743 6.743 0 0 0-5.026 2.124 7.146 7.146 0 0 0-2.09 5.18 7.118 7.118 0 0 0 2.09 5.152 6.746 6.746 0 0 0 5.031 2.124zm53.081-1.086a2.926 2.926 0 0 1 1.412.37 2.768 2.768 0 0 1 1.1 1.09 2.931 2.931 0 0 1 .394 1.455 2.955 2.955 0 0 1-.385 1.436 2.764 2.764 0 0 1-1.083 1.084 2.905 2.905 0 0 1-1.439.387 2.893 2.893 0 0 1-1.448-.388 2.787 2.787 0 0 1-1.081-1.083 2.94 2.94 0 0 1-.386-1.436 2.987 2.987 0 0 1 .384-1.449 2.685 2.685 0 0 1 1.105-1.1 2.973 2.973 0 0 1 1.428-.366zm27.354-18.249a11.353 11.353 0 0 1 8.376 3.548 11.708 11.708 0 0 1 3.474 8.512 11.657 11.657 0 0 1-3.474 8.49 11.367 11.367 0 0 1-8.376 3.521 11.334 11.334 0 0 1-8.369-3.521 11.677 11.677 0 0 1-3.48-8.49 11.731 11.731 0 0 1 3.48-8.512 11.318 11.318 0 0 1 8.369-3.548zm-17.437 0a2.264 2.264 0 0 1 1.663.7 2.264 2.264 0 0 1 .712 1.682v19.336a2.244 2.244 0 0 1-.706 1.669 2.28 2.28 0 0 1-1.669.685 2.3 2.3 0 0 1-1.674-.683 2.283 2.283 0 0 1-.707-1.671V30.107a2.286 2.286 0 0 1 .7-1.673 2.28 2.28 0 0 1 1.682-.708zm0-7.806a2.925 2.925 0 0 1 1.413.369 2.77 2.77 0 0 1 1.1 1.09 2.927 2.927 0 0 1 .394 1.454 2.938 2.938 0 0 1-.386 1.436 2.754 2.754 0 0 1-1.083 1.084 2.907 2.907 0 0 1-1.439.387 2.893 2.893 0 0 1-1.447-.387 2.785 2.785 0 0 1-1.081-1.084 2.944 2.944 0 0 1-.385-1.436 2.993 2.993 0 0 1 .384-1.449 2.7 2.7 0 0 1 1.105-1.1 2.972 2.972 0 0 1 1.426-.363zm-27.97 7.806a11.349 11.349 0 0 1 8.376 3.548 11.705 11.705 0 0 1 3.474 8.512 11.655 11.655 0 0 1-3.474 8.49 11.362 11.362 0 0 1-8.376 3.521 11.333 11.333 0 0 1-8.368-3.521 11.673 11.673 0 0 1-3.481-8.49 11.729 11.729 0 0 1 3.48-8.512 11.32 11.32 0 0 1 8.37-3.548zm-17.507-7.848a2.287 2.287 0 0 1 1.677.707 2.3 2.3 0 0 1 .684 1.674v27.184a2.316 2.316 0 0 1-.691 1.675 2.329 2.329 0 0 1-1.669.679 2.355 2.355 0 0 1-1.69-.685 2.28 2.28 0 0 1-.684-1.669V22.259a2.284 2.284 0 0 1 .684-1.675 2.318 2.318 0 0 1 1.69-.706zm-17.521 7.848a11.35 11.35 0 0 1 8.376 3.548 11.708 11.708 0 0 1 3.474 8.512 11.655 11.655 0 0 1-3.474 8.49 11.364 11.364 0 0 1-8.371 3.522 11.334 11.334 0 0 1-8.369-3.521 11.673 11.673 0 0 1-3.48-8.49 11.726 11.726 0 0 1 3.48-8.512 11.317 11.317 0 0 1 8.369-3.549zm-20.937 24.07a8.268 8.268 0 0 1-4.667-1.471 9.834 9.834 0 0 1-2.943-3.033 2.243 2.243 0 0 1-.28-1.77 2.339 2.339 0 0 1 1.045-1.495 2.324 2.324 0 0 1 1.792-.278 2.287 2.287 0 0 1 1.47 1.064 5.12 5.12 0 0 0 1.512 1.527 3.691 3.691 0 0 0 2.07.722 2.958 2.958 0 0 0 2.054-.756 2.163 2.163 0 0 0 .832-1.715 1.722 1.722 0 0 0-.62-1.474 11.147 11.147 0 0 0-2.916-1.1 14.519 14.519 0 0 1-4.457-1.872 6.076 6.076 0 0 1-2.526-5.214 6.777 6.777 0 0 1 2.258-5.106 7.582 7.582 0 0 1 5.376-2.1 7.838 7.838 0 0 1 4.182 1.174 7.194 7.194 0 0 1 2.8 3.152 2.3 2.3 0 0 1 .077 1.821 2.286 2.286 0 0 1-1.243 1.324 2.321 2.321 0 0 1-1.8.069 2.328 2.328 0 0 1-1.341-1.239 2.56 2.56 0 0 0-1.029-1.136 3.252 3.252 0 0 0-1.651-.432 3.024 3.024 0 0 0-2.07.752 2.2 2.2 0 0 0-.809 1.72 1.7 1.7 0 0 0 .57 1.426 12.185 12.185 0 0 0 2.926 1.083 14.694 14.694 0 0 1 4.478 1.88 6.175 6.175 0 0 1 2.525 5.269 6.789 6.789 0 0 1-2.237 5.114 7.6 7.6 0 0 1-5.377 2.096z" fill="#fff"/><path d="M18.09 1.956C19.39.09 20.654-.559 21.473.528a13.741 13.741 0 0 0 10.335 5.567A13.741 13.741 0 0 0 42.144.528c.819-1.087 2.079-.437 3.383 1.428 5.994 8.578 6.808 17.044 3.042 22.86 7.4 7.51 5.341 17.794 2.682 22.754-1.142 2.13-1.588 1.969-2.85.827-.392-.354-.847-.767-1.358-1.234a33.655 33.655 0 0 1-2.434 6.739c-1.536 3.241-4.9 3.79-5.087-.031H24.095c-.189 3.821-3.551 3.271-5.087.031a33.655 33.655 0 0 1-2.434-6.739c-.511.466-.966.88-1.358 1.234-1.263 1.142-1.709 1.3-2.851-.827-2.658-4.959-4.713-15.243 2.683-22.754-3.766-5.815-2.953-14.281 3.041-22.86" fill="#0eb1e4" fill-rule="evenodd"/><path d="M31.805 6.095A13.741 13.741 0 0 0 42.141.528c.819-1.087 2.079-.437 3.383 1.428 5.994 8.578 6.808 17.044 3.042 22.86 7.4 7.51 5.341 17.794 2.682 22.754-1.142 2.13-1.588 1.969-2.85.827-.392-.354-.847-.767-1.358-1.234a33.651 33.651 0 0 1-2.434 6.739c-1.536 3.241-4.9 3.79-5.087-.031h-7.714v-22.27c0-.66.4-1.17-2-1.461-5.639-.684-10.917-4.159-12.7-9.117a9.218 9.218 0 0 1-.547-3.119 6.374 6.374 0 0 1 2.656-5.233 6.906 6.906 0 0 1 9.891 1.867c1.141 1.921 1.305 4.3 1.54 6.47.088.807.153 1.663.294 2.459.065.374.168.9.55 1.076.207.1.073.065.307.065z" fill="#158bc2" fill-rule="evenodd"/><path d="M28.611 65.271c-.176.393-.662 2.944-1.255 3.326-2.147 1.382-8.4-13.986-8.811-15.7a166.7 166.7 0 0 1 26.534-.016c-.4 1.68-6.645 17.112-8.817 15.712-.593-.382-1.08-2.933-1.256-3.326-.313.942-1.629 6.783-3.362 6.385-1.694-.39-2.629-5.17-3.033-6.385" fill="#0eb1e4" fill-rule="evenodd"/><path d="M31.808 52.364c4.754 0 9.509.168 13.271.521a41.765 41.765 0 0 1-1.494 3.977l-.009.024-.011.026-.011.026-.011.026-.011.026-.011.026-.011.026-.022.053-.011.026-.011.026-.011.026-.012.026-.007.017v.01l-.012.026-.011.026-.011.026-.011.026-.012.026-.012.026-.011.026-.022.054-.011.027-.012.027-.011.026v.009l-.008.018-.011.027-.012.026-.022.054-.012.027-.023.054-.012.027-.011.027-.012.027-.011.028-.012.027-.011.026-.012.027-.012.028-.107.248-.01.022v.007l-.013.028-.011.028-.048.111-.012.028-.049.112-.012.028c-2.128 4.88-5.193 10.9-6.588 10.007-.593-.383-1.08-2.934-1.256-3.327-.3.911-1.546 6.415-3.2 6.4V58.411c0-.834-.1-1.974-2.142-1.925a94.31 94.31 0 0 0-9.429.857c-.265-.606-.735-1.822-.965-2.376a108.021 108.021 0 0 1 12.516-.713h.02z" fill="#158bc2" fill-rule="evenodd"/><path d="M31.805 28.499a17.3 17.3 0 0 0 2.435-.174c5.926-.847 12.8-5.178 12.8-11.835a6.374 6.374 0 0 0-2.656-5.233 6.905 6.905 0 0 0-9.89 1.868c-1.141 1.921-1.306 4.3-1.541 6.47-.087.807-.153 1.662-.293 2.46-.066.373-.168.9-.55 1.075-.207.1-.073.065-.307.065s-.1.033-.307-.065c-.382-.179-.485-.7-.55-1.075-.141-.8-.206-1.652-.294-2.46-.235-2.168-.4-4.548-1.54-6.47a6.905 6.905 0 0 0-9.891-1.868 6.375 6.375 0 0 0-2.656 5.233 9.218 9.218 0 0 0 .547 3.119c2.041 5.686 8.95 8.891 14.691 8.891" fill="#fff" fill-rule="evenodd"/><path d="M31.808 28.499a17.294 17.294 0 0 0 2.435-.174c5.926-.847 12.8-5.178 12.8-11.835a6.375 6.375 0 0 0-2.656-5.233 6.905 6.905 0 0 0-9.89 1.868c-1.141 1.921-1.306 4.3-1.541 6.47-.087.807-.153 1.662-.293 2.46-.066.373-.168.9-.55 1.075-.207.1-.073.065-.307.065z" fill="#ddf4f9" fill-rule="evenodd"/><path d="M24.856 13.936a2.914 2.914 0 0 1 2.914 2.914 2.914 2.914 0 0 1-2.914 2.914 2.914 2.914 0 0 1-2.914-2.914 2.914 2.914 0 0 1 2.914-2.914m13.905 0a2.914 2.914 0 0 1 2.914 2.914 2.914 2.914 0 0 1-2.914 2.914 2.914 2.914 0 0 1-2.914-2.914 2.914 2.914 0 0 1 2.917-2.914z" fill="#35393b" fill-rule="evenodd"/><path d="M25.785 15.19a.844.844 0 0 1 .844.844.844.844 0 0 1-.844.844.844.844 0 0 1-.844-.844.844.844 0 0 1 .844-.844M39.736 15.19a.844.844 0 0 1 .844.844.844.844 0 0 1-.844.844.843.843 0 0 1-.844-.844.844.844 0 0 1 .844-.844M31.808 31.502a7.891 7.891 0 0 0-7.887 7.675 6.164 6.164 0 0 0-.362-.012 5.637 5.637 0 0 0-5.637 5.637 5.637 5.637 0 0 0 5.637 5.637h16.5a5.638 5.638 0 0 0 5.636-5.637 5.637 5.637 0 0 0-5.637-5.637 5.52 5.52 0 0 0-3.876 1.439 6.526 6.526 0 0 1 3.266-3.194 7.894 7.894 0 0 0-7.639-5.909" fill="#fff" fill-rule="evenodd"/><path d="M1.855 48.548a4.3 4.3 0 0 1 2.994-3.6c.9.678 1.813 1.344 2.748 1.975a49.6 49.6 0 0 0 4.483 2.662c2.492 1.322 3.269 2.1 6.244 1.641a88.524 88.524 0 0 1 13.558-1.027 86.944 86.944 0 0 1 16.977 1.632 66.769 66.769 0 0 1 14.723 4.655 4.085 4.085 0 0 1-1.931 4.259 62.114 62.114 0 0 0-13.707-4.319 82.291 82.291 0 0 0-16.061-1.54 82.29 82.29 0 0 0-16.061 1.54A62.121 62.121 0 0 0 2.1 60.752C.2 59.924-.3 58.463.16 56.498a61.31 61.31 0 0 1 7.827-2.942l1.027-.31-.924-.544a64.8 64.8 0 0 1-6.234-4.153" fill="#c18e2e" fill-rule="evenodd"/><path d="M1.855 48.591a4.737 4.737 0 0 1 .832-2.064 62.5 62.5 0 0 0 9.17 6.056l-2.844.707-.924-.543a64.82 64.82 0 0 1-6.234-4.155M63.099 59.308a3.484 3.484 0 0 1-1.448 1.438 62.112 62.112 0 0 0-13.707-4.319 82.291 82.291 0 0 0-16.061-1.54 82.289 82.289 0 0 0-16.061 1.54A62.123 62.123 0 0 0 2.1 60.753a3.487 3.487 0 0 1-1.694-1.381c7.224-3.786 18.6-6.229 31.407-6.229 12.732 0 24.056 2.415 31.286 6.165" fill="#a96c25" fill-rule="evenodd"/></svg>